<svg id="Camada_1" data-name="Camada 1" xmlns="http://www.w3.org/2000/svg" viewBox="0 0 690.62 456.21"><defs><style>.cls-1,.cls-5{fill:#fff;}.cls-1{stroke:#fff;stroke-width:1.43px;}.cls-1,.cls-2,.cls-4{stroke-miterlimit:10;}.cls-2{fill:none;stroke-width:5.81px;}.cls-2,.cls-4{stroke:#221a17;}.cls-3{fill:#87868a;}.cls-4,.cls-6{fill:#221a17;}.cls-4{stroke-width:1.45px;}</style></defs><rect class="cls-1" x="0.72" y="0.72" width="689.18" height="454.78"/><path class="cls-2" d="M75.47,518.38c56.69-.27,113.37-.27,170.61-.88" transform="translate(29.67 -119.95)"/><path class="cls-2" d="M246.08,517.5c98.29-.84,197.12,5,296-3.75,13.08,0,29.07-2.91,37.79-16,7.27-11.62,4.36-23.25,4.36-34.88C588.55,367,581.06,298,574.66,202c-.9-13.46-4.72-19.31-7.63-25.12-7.26-10.17-16.18-6.17-27.81-7.63-155.52-8.72-293.92-6-449.44,2.7-4.36,0-18.07,3-22.43,4.48-8,2.7-8.75,4.83-11.66,6.28-14.53,14.54-10.53,36.9-12,55.79-1.45,33.43-1.76,35.4-.21,68.85.6,13.15.43,13.24,1.66,30.28,1.1,15.05,1.19,20.72,1.32,23.63C47.3,378.49,48.39,387,50,400c2.52,21.24,3.72,36.69,5.17,57,1.46,11.62,2.21,17.35,6.5,32.08.93,3.19,3.67,9.55,4.8,10.93,4.43,5.4,12,8.43,19.42,9,18.18,1.3,23.79-6.43,30.33-17.09,9-14.63,7.61-64.17,28.54-70.16,18.71-5.35,46-6.67,56.23-6.79,92.73-1,200.68-6.3,262.24,1.94,17.46,2.34,22.12,35.63,20.84,52.84-.57,7.67-3.65,19.5-9.46,23.86s-21,5.34-28.45,5.58c-22.76.71-62.57.71-94.56,1.62-68.66,2-127,2.72-193-.68-18.93-1-13.46-27-17-42.87-2.62-11.81-5.93-23-13.43-28.49-14.34-10.51-24.35-4.9-40.34-6.36-8.72-1.45-10.86-16.25-12.32-25-8.72-71.22-8.2-130.46-4-166.85,1.57-13.5,6.09-25.86,16.29-28.74,22.51-6.34,52.94-4.75,80.2-5.07,122.08-1.42,229.27-2.47,350.13,1.66,4.59.15,22.81-.93,24.6,12.16,9,65.83,3.73,64.29,5,128.25.31,15.27-.33,19.69-6.14,25.5-7.27,7.27-18.06,10.28-28.23,11.73-24.71,1.45-51-.69-75.72-.63-19.23,0-46.46-.45-53.27-10.21C371.76,350,370.32,302.71,378.62,274c3.27-11.32,17.1-13,25.83-14.43,17.44,0,46.53-1.4,56.26,12,14.55,16.49,20,95-9.55,94.11-8.74.46-36.36-17.11-44.33-31.64-5.85-10.68-8.68-21.84-1.53-36.79,2.81-5.88,15.69-11.11,24.32-7.92,7.88,2.91,15.29,21.16,13,40-2.05,16.83-32.57,31.48-43.7,37.47a69.56,69.56,0,0,1-27.15,8.51c-29.14,3.22-213.55,1.27-219.82-1.83-7.56-3.74-8.53-13-9-19-1-12.49-6.92-78.81-.51-87.69a24.65,24.65,0,0,1,16.4-10.17c9.21-1.69,35.2,1.82,47.56,11.9,13.44,10.95,15.12,37.53,10.66,47.94-4.68,10.93-11.9,12.22-17.94,13.39-5,1-15.41-1.27-19.33-6.44-3.59-4.76-6-7.46-7-22.69-.35-5.47,3.05-21.07,3.91-22.67,4.54-8.38,5.59-15.93,33.28-18.69,10-1,29.64-1.42,31.4,23.6.58,8.29,1.18,46.29,1.47,51.85.49,9.53-2.79,20.94,10,20.65,6.67-.16,82.07-.28,89-.33,7.67-.05,13.16-.48,12.58-13.55-.5-11.26.84-60-3.23-74.84-1.54-5.6-18.91-3.88-24.9-3.7-10.72.31,0,0-21.09.59-7.19.2.7-.09-16.46.65" transform="translate(29.67 -119.95)"/><path class="cls-2" d="M290.48,264.25c-4.22.33-8.48-1.1-10.64-4.54A17.74,17.74,0,0,0,278,256.8a2.66,2.66,0,0,0-3.11-.76,3,3,0,0,0-.9.88c-3.07,4.12-3.2,9.87-6.2,14a1.56,1.56,0,0,1-.66.59c-.53.2-1.09-.21-1.48-.63-1.65-1.83-2.5-4.51-4.72-5.59a8.48,8.48,0,0,0-3.08-.64c-1.61-.13-5.57-.21-7.18-.34" transform="translate(29.67 -119.95)"/><path class="cls-3" d="M322.75,427.09c-.42,1.14.1,3,.66,3.2,6.35,0,12.33-.05,18.69,0,1,0,2.66.14,3.17.89a4.27,4.27,0,0,1,.13,2.11c-1.25,17.78-8.76,34.63-12.1,52.18a1.46,1.46,0,0,0,0,1c.26.45.9.56,1.46.62,1.17.13,2.57.17,3.3-.67a3.14,3.14,0,0,0,.56-1.57c.87-5.21,2.77-10.23,4.22-15.33.83-2.88,1.51-5.79,2.19-8.7l5.54-23.56c.94-4,2.19-11.26,1.56-11.66-2.28-1.28-10.73-.31-16.5-.13-2.77.09-5.7.47-8.47.32C325.53,425.69,323.47,425.12,322.75,427.09Z" transform="translate(29.67 -119.95)"/><path class="cls-3" d="M332.44,448.26c-.51.42-.42,3.21-.27,4.87a2.79,2.79,0,0,0,.54,1.63,3,3,0,0,0,2.23.66l17.56.26a4.48,4.48,0,0,0,2.09-.31c1.48-.74,1.66-2.75,1.63-4.41,0-1-.14-2.23-1-2.71a3,3,0,0,0-1.32-.23C346.64,447.92,336.35,447.21,332.44,448.26Z" transform="translate(29.67 -119.95)"/><path class="cls-3" d="M286.88,427.5a1.64,1.64,0,0,1,1.08.19,1.29,1.29,0,0,1,.37,1.1l0,1.94a1.13,1.13,0,0,1-1,1.4c-2.11.58-4.47-.09-6.54.59a6.16,6.16,0,0,0-3.51,3.22,15,15,0,0,0-1.21,4.51,171.4,171.4,0,0,0-1.88,33,23.42,23.42,0,0,0,.79,5.95,7.76,7.76,0,0,0,1.58,2.95c2.27,2.52,6.35,2.8,9.93,2.72a2.06,2.06,0,0,1,1.11.19,1.57,1.57,0,0,1,.58,1.17,14.57,14.57,0,0,1,.08,3.3c-3.33.66-6.87,1.19-10.1.19a12.9,12.9,0,0,1-7.62-7.09,29.31,29.31,0,0,1-2.1-10c-.62-7.84-.63-15.72-.59-23.59,0-1.74,0-3.48.18-5.21a21.43,21.43,0,0,1,3.33-10,15.9,15.9,0,0,1,6.51-5.61C280.53,427.24,284,427.64,286.88,427.5Z" transform="translate(29.67 -119.95)"/><path class="cls-3" d="M302.49,440.53c-.86,4.77-1.73,9.54-2.64,14.31q-2.73,14.18-6.07,28.25c-.31,1.32-.63,2.64-.89,4a2.53,2.53,0,0,0,0,1.28,2.45,2.45,0,0,0,2.11,1.25,14.21,14.21,0,0,1,2.62.31,49.7,49.7,0,0,0,3.23-12.84,2.56,2.56,0,0,1,.81-1.93,3,3,0,0,1,1.58-.37,48.1,48.1,0,0,1,6.35.16,2.6,2.6,0,0,1,1.07.27,2,2,0,0,1,.75,1c1.74,4,.6,8.66,2.09,12.76a6.8,6.8,0,0,0,3.71.09,3.9,3.9,0,0,0,2.37-3.61,13.19,13.19,0,0,0-.93-4.34,69.93,69.93,0,0,1-2.32-13.47l-4.07-38.71a2.51,2.51,0,0,0-.42-1.36,3.21,3.21,0,0,0-2.41-.82l-3.59-.21c-1.57-.09-1.74,5.16-1.95,6.33Z" transform="translate(29.67 -119.95)"/><path class="cls-4" d="M289.82,425.8a1.65,1.65,0,0,1,1.08.19,1.31,1.31,0,0,1,.37,1.1l0,1.94a1.47,1.47,0,0,1-.24,1,1.5,1.5,0,0,1-.76.39c-2.1.58-4.46-.09-6.53.59a6.2,6.2,0,0,0-3.52,3.22,15.3,15.3,0,0,0-1.21,4.51,170.6,170.6,0,0,0-1.87,33,22.85,22.85,0,0,0,.79,5.94,7.72,7.72,0,0,0,1.58,3c2.27,2.52,6.35,2.8,9.93,2.72a2,2,0,0,1,1.11.19,1.52,1.52,0,0,1,.57,1.17,13.49,13.49,0,0,1,.08,3.3c-3.33.66-6.86,1.19-10.09.19a12.87,12.87,0,0,1-7.62-7.09,29.08,29.08,0,0,1-2.1-10c-.62-7.85-.63-15.72-.6-23.59,0-1.74,0-3.48.18-5.21a21.4,21.4,0,0,1,3.34-10,15.8,15.8,0,0,1,6.5-5.61C283.47,425.53,287,425.94,289.82,425.8Z" transform="translate(29.67 -119.95)"/><path class="cls-4" d="M305.43,438.83c-.87,4.77-1.73,9.54-2.64,14.3q-2.73,14.19-6.07,28.26c-.32,1.32-.63,2.64-.89,4a2.42,2.42,0,0,0,0,1.28,2.47,2.47,0,0,0,2.1,1.25,15,15,0,0,1,2.62.3,49.92,49.92,0,0,0,3.24-12.84,2.52,2.52,0,0,1,.81-1.92,3,3,0,0,1,1.57-.37,48.06,48.06,0,0,1,6.35.16,2.56,2.56,0,0,1,1.07.27,2,2,0,0,1,.76,1c1.74,4,.6,8.66,2.09,12.76a6.89,6.89,0,0,0,3.71.09,3.94,3.94,0,0,0,2.37-3.61,13.45,13.45,0,0,0-.93-4.34,69.93,69.93,0,0,1-2.32-13.47l-4.08-38.72a2.55,2.55,0,0,0-.41-1.35,3.21,3.21,0,0,0-2.41-.82l-3.59-.21c-1.57-.1-1.74,5.16-1.95,6.33Z" transform="translate(29.67 -119.95)"/><path class="cls-5" d="M306.23,462.63a22.77,22.77,0,0,0-.78,4.68,1,1,0,0,0,.22.78,1.3,1.3,0,0,0,.7.26c2.1.33,4.21.58,6.33.77a1.1,1.1,0,0,0,.92-.2.84.84,0,0,0,.15-.62q-.24-12.94-1.56-25.87c-.14-1.36.16-4.73-.8-5.75-1.73,1.44-1.49,5.63-1.75,7.52q-.81,5.93-2,11.82Q307,459.34,306.23,462.63Z" transform="translate(29.67 -119.95)"/><path class="cls-4" d="M324.69,426.65c-.42,1.14.1,3,.66,3.2,6.35,0,12.34-.05,18.69,0,1,0,2.66.14,3.17.89a4.28,4.28,0,0,1,.13,2.11c-1.25,17.78-8.76,34.63-12.1,52.19a1.43,1.43,0,0,0,.05,1c.25.45.9.56,1.45.62,1.17.13,2.57.18,3.3-.67a3,3,0,0,0,.56-1.57c.87-5.21,2.77-10.23,4.23-15.33.82-2.88,1.5-5.79,2.19-8.7l5.53-23.55c.94-4,2.19-11.27,1.56-11.67-2.28-1.28-10.73-.31-16.5-.12-2.77.08-5.69.46-8.46.31C327.48,425.25,325.41,424.68,324.69,426.65Z" transform="translate(29.67 -119.95)"/><path class="cls-6" d="M334.25,447.94c-.59.53-.29,3.09-.14,4.75a2.79,2.79,0,0,0,.54,1.63,3,3,0,0,0,2.24.66l17.55.26a4.46,4.46,0,0,0,2.09-.3c1.49-.75,1.66-2.76,1.63-4.42,0-1-.14-2.23-1-2.7a2.74,2.74,0,0,0-1.33-.23C348.59,447.48,336.32,447.42,334.25,447.94Z" transform="translate(29.67 -119.95)"/></svg>